<svg xmlns="http://www.w3.org/2000/svg" width="1200" height="760" viewBox="0 0 1200 760" role="img" aria-labelledby="title desc">
  <title id="title">Manga Settlement トップ画面デモ</title>
  <desc id="desc">検索欄、タグ選択、リフレッシュボタン、マンガ一覧カードが並ぶトップ画面のデモ画像。</desc>
  <defs>
    <linearGradient id="bg" x1="0" y1="0" x2="1" y2="1">
      <stop offset="0" stop-color="#f8fafc"/>
      <stop offset="1" stop-color="#e7eef6"/>
    </linearGradient>
    <linearGradient id="coverA" x1="0" y1="0" x2="1" y2="1">
      <stop offset="0" stop-color="#1f2937"/>
      <stop offset="1" stop-color="#14b8a6"/>
    </linearGradient>
    <linearGradient id="coverB" x1="0" y1="0" x2="1" y2="1">
      <stop offset="0" stop-color="#5b21b6"/>
      <stop offset="1" stop-color="#f97316"/>
    </linearGradient>
    <linearGradient id="coverC" x1="0" y1="0" x2="1" y2="1">
      <stop offset="0" stop-color="#0f766e"/>
      <stop offset="1" stop-color="#facc15"/>
    </linearGradient>
    <filter id="shadow" x="-20%" y="-20%" width="140%" height="140%">
      <feDropShadow dx="0" dy="18" stdDeviation="28" flood-color="#0f172a" flood-opacity="0.16"/>
    </filter>
  </defs>
  <rect width="1200" height="760" fill="url(#bg)"/>
  <rect x="214" y="34" width="772" height="692" rx="42" fill="#111827" filter="url(#shadow)"/>
  <rect x="234" y="54" width="732" height="652" rx="30" fill="#f9fafb"/>
  <rect x="234" y="54" width="732" height="84" rx="30" fill="#ffffff"/>
  <text x="278" y="106" font-family="Arial, 'Hiragino Sans', sans-serif" font-size="30" font-weight="700" fill="#111827">Manga Settlement</text>
  <text x="834" y="106" font-family="Arial, 'Hiragino Sans', sans-serif" font-size="16" font-weight="700" fill="#2563eb">更新完了</text>

  <rect x="278" y="164" width="402" height="50" rx="14" fill="#ffffff" stroke="#dbe3ef"/>
  <circle cx="304" cy="189" r="10" fill="none" stroke="#64748b" stroke-width="3"/>
  <line x1="312" y1="197" x2="322" y2="207" stroke="#64748b" stroke-width="3" stroke-linecap="round"/>
  <text x="340" y="196" font-family="Arial, 'Hiragino Sans', sans-serif" font-size="18" fill="#64748b">ファイル名で検索</text>

  <rect x="696" y="164" width="138" height="50" rx="14" fill="#ffffff" stroke="#dbe3ef"/>
  <text x="724" y="196" font-family="Arial, 'Hiragino Sans', sans-serif" font-size="17" fill="#334155">SF</text>
  <path d="M803 184l10 10 10-10" fill="none" stroke="#64748b" stroke-width="3" stroke-linecap="round" stroke-linejoin="round"/>

  <rect x="850" y="164" width="72" height="50" rx="14" fill="#2563eb"/>
  <path d="M880 178a14 14 0 1 1-8 25" fill="none" stroke="#ffffff" stroke-width="4" stroke-linecap="round"/>
  <path d="M872 203h14v-14" fill="none" stroke="#ffffff" stroke-width="4" stroke-linecap="round" stroke-linejoin="round"/>

  <rect x="278" y="246" width="644" height="124" rx="18" fill="#ffffff" stroke="#dbe3ef"/>
  <rect x="300" y="266" width="64" height="84" rx="8" fill="url(#coverA)"/>
  <text x="384" y="292" font-family="Arial, 'Hiragino Sans', sans-serif" font-size="22" font-weight="700" fill="#0f172a">星降る港の冒険 01.zip</text>
  <text x="384" y="323" font-family="Arial, 'Hiragino Sans', sans-serif" font-size="16" fill="#64748b">178ページ</text>
  <rect x="384" y="336" width="46" height="24" rx="12" fill="#e0f2fe"/>
  <text x="399" y="353" font-family="Arial, 'Hiragino Sans', sans-serif" font-size="12" font-weight="700" fill="#0369a1">SF</text>
  <rect x="438" y="336" width="66" height="24" rx="12" fill="#dcfce7"/>
  <text x="455" y="353" font-family="Arial, 'Hiragino Sans', sans-serif" font-size="12" font-weight="700" fill="#15803d">完結</text>
  <path d="M884 298l16 16-16 16" fill="none" stroke="#94a3b8" stroke-width="4" stroke-linecap="round" stroke-linejoin="round"/>

  <rect x="278" y="390" width="644" height="124" rx="18" fill="#ffffff" stroke="#dbe3ef"/>
  <rect x="300" y="410" width="64" height="84" rx="8" fill="url(#coverB)"/>
  <text x="384" y="436" font-family="Arial, 'Hiragino Sans', sans-serif" font-size="22" font-weight="700" fill="#0f172a">雨の日の作戦会議 02.zip</text>
  <text x="384" y="467" font-family="Arial, 'Hiragino Sans', sans-serif" font-size="16" fill="#64748b">204ページ</text>
  <rect x="384" y="480" width="68" height="24" rx="12" fill="#fef3c7"/>
  <text x="401" y="497" font-family="Arial, 'Hiragino Sans', sans-serif" font-size="12" font-weight="700" fill="#b45309">日常</text>
  <path d="M884 442l16 16-16 16" fill="none" stroke="#94a3b8" stroke-width="4" stroke-linecap="round" stroke-linejoin="round"/>

  <rect x="278" y="534" width="644" height="124" rx="18" fill="#ffffff" stroke="#dbe3ef"/>
  <rect x="300" y="554" width="64" height="84" rx="8" fill="url(#coverC)"/>
  <text x="384" y="580" font-family="Arial, 'Hiragino Sans', sans-serif" font-size="22" font-weight="700" fill="#0f172a">午前三時の図書館.zip</text>
  <text x="384" y="611" font-family="Arial, 'Hiragino Sans', sans-serif" font-size="16" fill="#64748b">132ページ</text>
  <rect x="384" y="624" width="72" height="24" rx="12" fill="#ede9fe"/>
  <text x="400" y="641" font-family="Arial, 'Hiragino Sans', sans-serif" font-size="12" font-weight="700" fill="#6d28d9">読書中</text>
  <path d="M884 586l16 16-16 16" fill="none" stroke="#94a3b8" stroke-width="4" stroke-linecap="round" stroke-linejoin="round"/>
</svg>
