<svg xmlns="http://www.w3.org/2000/svg" width="1200" height="760" viewBox="0 0 1200 760" role="img" aria-labelledby="title desc">
  <title id="title">Manga Settlement ビューアーデモ</title>
  <desc id="desc">単ページ表示のビューアー、ページ操作バー、サムネイル一覧が表示されたデモ画像。</desc>
  <defs>
    <linearGradient id="page" x1="0" y1="0" x2="1" y2="1">
      <stop offset="0" stop-color="#ffffff"/>
      <stop offset="1" stop-color="#e5e7eb"/>
    </linearGradient>
    <filter id="shadow" x="-20%" y="-20%" width="140%" height="140%">
      <feDropShadow dx="0" dy="18" stdDeviation="28" flood-color="#020617" flood-opacity="0.24"/>
    </filter>
  </defs>
  <rect width="1200" height="760" fill="#121826"/>
  <rect x="104" y="32" width="992" height="696" rx="34" fill="#0f172a" filter="url(#shadow)"/>
  <rect x="126" y="54" width="948" height="652" rx="24" fill="#111827"/>

  <rect x="166" y="90" width="868" height="482" rx="18" fill="#0b1020"/>
  <rect x="424" y="112" width="352" height="438" rx="6" fill="url(#page)"/>
  <rect x="446" y="136" width="308" height="390" rx="4" fill="#f8fafc" stroke="#cbd5e1"/>
  <path d="M487 485c36-82 72-116 126-102 43 11 68-7 100-58 14 42 25 88 31 138 3 24-12 45-36 48-69 10-143 4-221-26z" fill="#1f2937"/>
  <circle cx="532" cy="246" r="46" fill="#94a3b8"/>
  <path d="M594 222c56 12 98 54 111 111" fill="none" stroke="#64748b" stroke-width="18" stroke-linecap="round"/>
  <path d="M502 340c32-44 80-55 142-31" fill="none" stroke="#0f172a" stroke-width="12" stroke-linecap="round"/>
  <line x1="466" y1="160" x2="734" y2="160" stroke="#cbd5e1" stroke-width="10" stroke-linecap="round"/>
  <line x1="466" y1="184" x2="690" y2="184" stroke="#dbe3ef" stroke-width="10" stroke-linecap="round"/>

  <circle cx="191" cy="331" r="26" fill="#ffffff" fill-opacity="0.12"/>
  <path d="M200 312l-18 19 18 19" fill="none" stroke="#ffffff" stroke-width="5" stroke-linecap="round" stroke-linejoin="round"/>
  <circle cx="1009" cy="331" r="26" fill="#ffffff" fill-opacity="0.12"/>
  <path d="M1000 312l18 19-18 19" fill="none" stroke="#ffffff" stroke-width="5" stroke-linecap="round" stroke-linejoin="round"/>

  <rect x="326" y="594" width="548" height="62" rx="22" fill="#ffffff" fill-opacity="0.95"/>
  <path d="M366 624l16-16v32z" fill="#334155"/>
  <text x="430" y="633" font-family="Arial, 'Hiragino Sans', sans-serif" font-size="20" font-weight="700" fill="#0f172a">12 / 178</text>
  <rect x="548" y="609" width="96" height="32" rx="16" fill="#dbeafe"/>
  <text x="574" y="631" font-family="Arial, 'Hiragino Sans', sans-serif" font-size="14" font-weight="700" fill="#1d4ed8">単ページ</text>
  <rect x="658" y="609" width="74" height="32" rx="16" fill="#e2e8f0"/>
  <text x="679" y="631" font-family="Arial, 'Hiragino Sans', sans-serif" font-size="14" font-weight="700" fill="#334155">右綴じ</text>
  <path d="M823 624l-16-16v32z" fill="#334155"/>

  <rect x="166" y="674" width="868" height="42" rx="16" fill="#ffffff" fill-opacity="0.08"/>
  <g>
    <rect x="196" y="682" width="28" height="28" rx="4" fill="#e5e7eb"/>
    <rect x="236" y="682" width="28" height="28" rx="4" fill="#e5e7eb"/>
    <rect x="276" y="682" width="28" height="28" rx="4" fill="#e5e7eb"/>
    <rect x="316" y="679" width="34" height="34" rx="5" fill="#ffffff" stroke="#60a5fa" stroke-width="3"/>
    <rect x="362" y="682" width="28" height="28" rx="4" fill="#e5e7eb"/>
    <rect x="402" y="682" width="28" height="28" rx="4" fill="#e5e7eb"/>
    <rect x="442" y="682" width="28" height="28" rx="4" fill="#e5e7eb"/>
    <rect x="482" y="682" width="28" height="28" rx="4" fill="#e5e7eb"/>
    <rect x="522" y="682" width="28" height="28" rx="4" fill="#e5e7eb"/>
    <rect x="562" y="682" width="28" height="28" rx="4" fill="#e5e7eb"/>
    <rect x="602" y="682" width="28" height="28" rx="4" fill="#e5e7eb"/>
    <rect x="642" y="682" width="28" height="28" rx="4" fill="#e5e7eb"/>
    <rect x="682" y="682" width="28" height="28" rx="4" fill="#e5e7eb"/>
    <rect x="722" y="682" width="28" height="28" rx="4" fill="#e5e7eb"/>
    <rect x="762" y="682" width="28" height="28" rx="4" fill="#e5e7eb"/>
    <rect x="802" y="682" width="28" height="28" rx="4" fill="#e5e7eb"/>
    <rect x="842" y="682" width="28" height="28" rx="4" fill="#e5e7eb"/>
    <rect x="882" y="682" width="28" height="28" rx="4" fill="#e5e7eb"/>
    <rect x="922" y="682" width="28" height="28" rx="4" fill="#e5e7eb"/>
    <rect x="962" y="682" width="28" height="28" rx="4" fill="#e5e7eb"/>
  </g>
</svg>
